<mxfile host="Electron" modified="2023-07-25T01:01:16.154Z" agent="Mozilla/5.0 (Windows NT 10.0; Win64; x64) AppleWebKit/537.36 (KHTML, like Gecko) draw.io/21.6.5 Chrome/114.0.5735.243 Electron/25.3.1 Safari/537.36" etag="jVoPIt0oEKLw203i_mvV" version="21.6.5" type="device">
  <diagram name="Page-1" id="GcQAFc7T_E8WWP9-CP-i">
    <mxGraphModel dx="1674" dy="836" grid="1" gridSize="10" guides="1" tooltips="1" connect="1" arrows="1" fold="1" page="1" pageScale="1" pageWidth="827" pageHeight="1169" math="0" shadow="0">
      <root>
        <mxCell id="0" />
        <mxCell id="1" parent="0" />
        <mxCell id="8R2meNSlnnWfXJwPKQnz-1" value="" style="strokeWidth=1;shadow=0;dashed=0;align=center;html=1;shape=mxgraph.mockup.containers.browserWindow;rSize=0;strokeColor=#666666;strokeColor2=#008cff;strokeColor3=#c4c4c4;mainText=,;recursiveResize=0;container=0;" vertex="1" parent="1">
          <mxGeometry x="50" y="115" width="910" height="620" as="geometry" />
        </mxCell>
        <mxCell id="8R2meNSlnnWfXJwPKQnz-2" value="Page 1" style="strokeWidth=1;shadow=0;dashed=0;align=center;html=1;shape=mxgraph.mockup.containers.anchor;fontSize=17;fontColor=#666666;align=left;whiteSpace=wrap;" vertex="1" parent="1">
          <mxGeometry x="110" y="132" width="110" height="26" as="geometry" />
        </mxCell>
        <mxCell id="8R2meNSlnnWfXJwPKQnz-3" value="https://www.Register.html" style="strokeWidth=1;shadow=0;dashed=0;align=center;html=1;shape=mxgraph.mockup.containers.anchor;rSize=0;fontSize=17;fontColor=#666666;align=left;" vertex="1" parent="1">
          <mxGeometry x="180" y="180" width="250" height="26" as="geometry" />
        </mxCell>
        <mxCell id="8R2meNSlnnWfXJwPKQnz-88" value="" style="group" vertex="1" connectable="0" parent="1">
          <mxGeometry x="485" y="240" width="50" height="50" as="geometry" />
        </mxCell>
        <mxCell id="8R2meNSlnnWfXJwPKQnz-86" value="" style="verticalLabelPosition=bottom;shadow=0;dashed=0;align=center;html=1;verticalAlign=top;strokeWidth=1;shape=mxgraph.mockup.graphics.simpleIcon;strokeColor=#999999;" vertex="1" parent="8R2meNSlnnWfXJwPKQnz-88">
          <mxGeometry width="50" height="50" as="geometry" />
        </mxCell>
        <mxCell id="8R2meNSlnnWfXJwPKQnz-87" value="Logo" style="text;html=1;align=center;verticalAlign=middle;resizable=0;points=[];autosize=1;strokeColor=none;fillColor=none;" vertex="1" parent="8R2meNSlnnWfXJwPKQnz-88">
          <mxGeometry y="10" width="50" height="30" as="geometry" />
        </mxCell>
        <mxCell id="8R2meNSlnnWfXJwPKQnz-89" value="&lt;font style=&quot;font-size: 55px;&quot;&gt;Customer Registration&lt;/font&gt;" style="text;html=1;align=center;verticalAlign=middle;resizable=0;points=[];autosize=1;strokeColor=none;fillColor=none;" vertex="1" parent="1">
          <mxGeometry x="220" y="287" width="570" height="80" as="geometry" />
        </mxCell>
        <mxCell id="8R2meNSlnnWfXJwPKQnz-146" value="&lt;font size=&quot;3&quot;&gt;signature cuisine&lt;/font&gt;" style="text;html=1;align=center;verticalAlign=middle;resizable=0;points=[];autosize=1;strokeColor=none;fillColor=none;" vertex="1" parent="1">
          <mxGeometry x="435" y="362" width="140" height="30" as="geometry" />
        </mxCell>
        <mxCell id="8R2meNSlnnWfXJwPKQnz-173" value="Add Details" style="strokeWidth=1;shadow=0;dashed=0;align=center;html=1;shape=mxgraph.mockup.buttons.button;strokeColor=#666666;fontColor=#ffffff;mainText=;buttonStyle=round;fontSize=17;fontStyle=1;fillColor=#008cff;whiteSpace=wrap;" vertex="1" parent="1">
          <mxGeometry x="365" y="600" width="120" height="30" as="geometry" />
        </mxCell>
        <mxCell id="8R2meNSlnnWfXJwPKQnz-174" value="Back" style="strokeWidth=1;shadow=0;dashed=0;align=center;html=1;shape=mxgraph.mockup.buttons.button;strokeColor=#666666;fontColor=#ffffff;mainText=;buttonStyle=round;fontSize=17;fontStyle=1;fillColor=#008cff;whiteSpace=wrap;" vertex="1" parent="1">
          <mxGeometry x="457.5" y="670" width="95" height="30" as="geometry" />
        </mxCell>
        <mxCell id="8R2meNSlnnWfXJwPKQnz-188" value="" style="group" vertex="1" connectable="0" parent="1">
          <mxGeometry x="305" y="392" width="400" height="193" as="geometry" />
        </mxCell>
        <mxCell id="8R2meNSlnnWfXJwPKQnz-175" value="Customer name" style="strokeWidth=1;shadow=0;dashed=0;align=center;html=1;shape=mxgraph.mockup.forms.anchor;align=right;spacingRight=2;fontColor=#666666;" vertex="1" parent="8R2meNSlnnWfXJwPKQnz-188">
          <mxGeometry width="50" height="18" as="geometry" />
        </mxCell>
        <mxCell id="8R2meNSlnnWfXJwPKQnz-176" value="" style="strokeWidth=1;shadow=0;dashed=0;align=center;html=1;shape=mxgraph.mockup.forms.rrect;fillColor=#ffffff;rSize=0;fontColor=#666666;align=left;spacingLeft=3;strokeColor=#999999;" vertex="1" parent="8R2meNSlnnWfXJwPKQnz-188">
          <mxGeometry x="50" width="350" height="18" as="geometry" />
        </mxCell>
        <mxCell id="8R2meNSlnnWfXJwPKQnz-177" value="email" style="strokeWidth=1;shadow=0;dashed=0;align=center;html=1;shape=mxgraph.mockup.forms.anchor;align=right;spacingRight=2;fontColor=#666666;" vertex="1" parent="8R2meNSlnnWfXJwPKQnz-188">
          <mxGeometry y="35" width="50" height="18" as="geometry" />
        </mxCell>
        <mxCell id="8R2meNSlnnWfXJwPKQnz-178" value="" style="strokeWidth=1;shadow=0;dashed=0;align=center;html=1;shape=mxgraph.mockup.forms.rrect;fillColor=#ffffff;rSize=0;fontColor=#666666;align=left;spacingLeft=3;strokeColor=#999999;" vertex="1" parent="8R2meNSlnnWfXJwPKQnz-188">
          <mxGeometry x="50" y="35" width="350" height="18" as="geometry" />
        </mxCell>
        <mxCell id="8R2meNSlnnWfXJwPKQnz-179" value="address" style="strokeWidth=1;shadow=0;dashed=0;align=center;html=1;shape=mxgraph.mockup.forms.anchor;align=right;spacingRight=2;fontColor=#666666;" vertex="1" parent="8R2meNSlnnWfXJwPKQnz-188">
          <mxGeometry y="70" width="50" height="18" as="geometry" />
        </mxCell>
        <mxCell id="8R2meNSlnnWfXJwPKQnz-180" value="" style="strokeWidth=1;shadow=0;dashed=0;align=center;html=1;shape=mxgraph.mockup.forms.rrect;fillColor=#ffffff;rSize=0;fontColor=#666666;align=left;spacingLeft=3;strokeColor=#999999;" vertex="1" parent="8R2meNSlnnWfXJwPKQnz-188">
          <mxGeometry x="50" y="70" width="350" height="18" as="geometry" />
        </mxCell>
        <mxCell id="8R2meNSlnnWfXJwPKQnz-181" value="contact" style="strokeWidth=1;shadow=0;dashed=0;align=center;html=1;shape=mxgraph.mockup.forms.anchor;align=right;spacingRight=2;fontColor=#666666;" vertex="1" parent="8R2meNSlnnWfXJwPKQnz-188">
          <mxGeometry y="105" width="50" height="18" as="geometry" />
        </mxCell>
        <mxCell id="8R2meNSlnnWfXJwPKQnz-182" value="" style="strokeWidth=1;shadow=0;dashed=0;align=center;html=1;shape=mxgraph.mockup.forms.rrect;fillColor=#ffffff;rSize=0;fontColor=#666666;align=left;spacingLeft=3;strokeColor=#999999;" vertex="1" parent="8R2meNSlnnWfXJwPKQnz-188">
          <mxGeometry x="50" y="105" width="350" height="18" as="geometry" />
        </mxCell>
        <mxCell id="8R2meNSlnnWfXJwPKQnz-183" value="username" style="strokeWidth=1;shadow=0;dashed=0;align=center;html=1;shape=mxgraph.mockup.forms.anchor;align=right;spacingRight=2;fontColor=#666666;" vertex="1" parent="8R2meNSlnnWfXJwPKQnz-188">
          <mxGeometry y="140" width="50" height="18" as="geometry" />
        </mxCell>
        <mxCell id="8R2meNSlnnWfXJwPKQnz-184" value="" style="strokeWidth=1;shadow=0;dashed=0;align=center;html=1;shape=mxgraph.mockup.forms.rrect;fillColor=#ffffff;rSize=0;fontColor=#666666;align=left;spacingLeft=3;strokeColor=#999999;" vertex="1" parent="8R2meNSlnnWfXJwPKQnz-188">
          <mxGeometry x="50" y="140" width="350" height="18" as="geometry" />
        </mxCell>
        <mxCell id="8R2meNSlnnWfXJwPKQnz-186" value="" style="strokeWidth=1;shadow=0;dashed=0;align=center;html=1;shape=mxgraph.mockup.forms.rrect;fillColor=#ffffff;rSize=0;fontColor=#666666;align=left;spacingLeft=3;strokeColor=#999999;" vertex="1" parent="8R2meNSlnnWfXJwPKQnz-188">
          <mxGeometry x="50" y="175" width="350" height="18" as="geometry" />
        </mxCell>
        <mxCell id="8R2meNSlnnWfXJwPKQnz-187" value="password" style="strokeWidth=1;shadow=0;dashed=0;align=center;html=1;shape=mxgraph.mockup.forms.anchor;align=right;spacingRight=2;fontColor=#666666;" vertex="1" parent="8R2meNSlnnWfXJwPKQnz-188">
          <mxGeometry y="175" width="50" height="18" as="geometry" />
        </mxCell>
        <mxCell id="8R2meNSlnnWfXJwPKQnz-189" value="Reset" style="strokeWidth=1;shadow=0;dashed=0;align=center;html=1;shape=mxgraph.mockup.buttons.button;strokeColor=#666666;fontColor=#ffffff;mainText=;buttonStyle=round;fontSize=17;fontStyle=1;fillColor=#008cff;whiteSpace=wrap;" vertex="1" parent="1">
          <mxGeometry x="535" y="600" width="120" height="30" as="geometry" />
        </mxCell>
      </root>
    </mxGraphModel>
  </diagram>
</mxfile>
